<svg width="5713" height="1024" viewBox="0 0 5713 1024" fill="none" xmlns="http://www.w3.org/2000/svg">
<path fill-rule="evenodd" clip-rule="evenodd" d="M200.634 504.298L107.991 560.919L74.5367 586.655L35.9355 789.974L506.87 908.363L519.737 910.936L573.778 872.332L751.344 923.805L1044.71 1016.46L1088.46 1021.6L1634.02 669.012L1636.6 645.85L1556.82 445.104L1543.95 427.089L1515.65 419.368L1307.2 388.484C1263.23 350.099 1264.62 392.226 1299.48 352.452L1412.71 272.669L1394.7 239.211L1325.21 64.2025L1314.92 48.7606L1289.19 43.6133L885.161 84.7918L439.961 290.685L401.36 313.847L331.878 455.399L270.116 504.298H200.634Z" fill="#F3E899"/>
<path d="M837.417 978.252C715.895 954.231 604.039 932.157 588.849 929.2C569.113 925.359 561.23 918.911 561.23 906.608C561.23 892.821 625.509 702.283 633.753 691.633C637.231 687.141 937.58 735.42 956.563 743.522C968.699 748.701 988.008 788.935 1022.42 880.748C1072.57 1014.52 1075.58 1024.65 1064.74 1022.93C1061.23 1022.38 958.939 1002.27 837.417 978.252V978.252ZM1088.11 1015.41C1088.11 1010.72 1207.61 930.932 1353.67 838.097C1499.73 745.263 1622.62 666.089 1626.76 662.156C1634.56 654.736 1629.51 639.203 1577.82 511.648C1561.23 470.687 1550.8 437.173 1554.65 437.173C1558.49 437.173 1574.08 468.656 1589.28 507.134C1604.48 545.613 1624.66 594.608 1634.13 616.013C1644.1 638.557 1648.16 658.206 1643.79 662.716C1633.83 672.973 1098.21 1023.94 1092.51 1023.94C1090.09 1023.94 1088.11 1020.1 1088.11 1015.41V1015.41ZM276.546 869.926C155.024 845.904 43.1683 823.831 27.978 820.874C8.24191 817.032 0.359375 810.584 0.359375 798.281C0.359375 784.494 64.6383 593.956 72.8824 583.306C76.3595 578.814 376.709 627.093 395.692 635.195C407.828 640.375 427.137 680.609 461.552 772.421C511.695 906.196 514.709 916.321 503.869 914.608C500.363 914.055 398.068 893.947 276.546 869.926V869.926ZM528.832 906.024C530.877 899.507 537.569 892.398 543.703 890.226C550.077 887.969 553.264 891.355 551.139 898.125C549.094 904.641 542.402 911.75 536.267 913.923C529.894 916.179 526.707 912.794 528.832 906.024V906.024ZM806.181 695.675C732.914 685.071 670.444 673.677 667.36 670.355C664.275 667.034 670.522 659.33 681.242 653.236C696.544 644.536 714.503 644.475 764.825 652.949C879.321 672.23 860.907 679.336 1093.59 526.077L1307.27 385.332L1412.26 402.17C1470.01 411.431 1523 420.148 1530.01 421.54C1537.02 422.932 1421.39 489.984 1273.05 570.544C1056.94 687.911 996.987 716.812 971.367 715.987C953.782 715.42 879.448 706.28 806.181 695.676V695.675ZM607.97 599.11C486.448 575.088 374.592 553.015 359.402 550.058C339.666 546.216 331.783 539.768 331.783 527.465C331.783 513.678 396.062 323.14 404.306 312.49C407.783 307.998 708.133 356.277 727.116 364.379C739.252 369.559 758.561 409.793 792.976 501.605C843.119 635.38 846.132 645.505 835.292 643.792C831.787 643.239 729.492 623.131 607.97 599.11V599.11ZM242.871 587.349C168.263 576.744 107.739 564.347 108.374 559.799C109.345 552.836 315.334 446.201 327.814 446.201C330.123 446.201 326.092 461.25 318.857 479.644C303.675 518.242 309.194 560.64 330.249 567.155C342.856 571.057 441.098 590.636 448.068 590.636C449.546 590.636 450.756 594.698 450.756 599.663C450.756 612.524 397.999 609.398 242.871 587.349V587.349ZM1283.56 360.845C1283.56 358.585 1310.33 339.842 1343.05 319.194C1375.77 298.547 1402.54 278.55 1402.54 274.757C1402.54 267.507 1397.03 253.057 1348.3 132.505C1331.75 91.5444 1321.3 58.031 1325.1 58.031C1330.39 58.031 1388.36 192.796 1416.9 271.424C1418.95 277.078 1392.33 300.436 1357.76 323.33C1297.99 362.897 1283.56 370.194 1283.56 360.845V360.845ZM574.295 316.533C499.687 305.928 439.183 293.58 439.843 289.093C440.502 284.605 555.083 224.589 694.467 155.723C833.85 86.8572 962.858 22.6666 981.151 13.0772C1014.33 -4.31466 1014.76 -4.3019 1155.36 18.2469C1232.88 30.6796 1299.93 41.935 1304.35 43.2588C1308.76 44.5827 1191.22 111.413 1043.14 191.77C827.485 308.793 767.53 337.669 741.92 336.844C724.334 336.277 648.903 327.138 574.295 316.533V316.533Z" fill="#957527"/>
<path fill-rule="evenodd" clip-rule="evenodd" d="M1484.77 512.023C1439.52 550.595 1383.19 562.494 1329.32 574.969C1281.76 625.089 1209.77 635.431 1163.45 684.676C1139.26 738.33 1070.57 769.105 1042.02 802.148C1093.5 813.608 1174.38 832.221 1198.14 766.978C1211.6 707.608 1271.79 703.578 1320.28 697.286C1405.95 674.744 1459.96 598.369 1519.83 538.819C1537.24 509.95 1501.7 512.688 1484.77 512.023Z" fill="#F3EBAD"/>
<path fill-rule="evenodd" clip-rule="evenodd" d="M1284.04 138.84C1238.79 177.411 1182.46 189.31 1128.59 201.785C1081.03 251.906 1009.04 262.247 962.723 311.492C938.526 365.146 869.837 395.922 841.289 428.964C892.767 440.424 973.648 459.038 997.408 393.795C1010.87 334.424 1071.06 330.394 1119.54 324.102C1205.22 301.56 1259.23 225.186 1319.1 165.636C1336.51 136.767 1300.97 139.505 1284.04 138.84Z" fill="#F3EBAD"/>
<path fill-rule="evenodd" clip-rule="evenodd" d="M555.767 622.69C544.19 636.301 521.289 633.229 512.113 647.764C505.401 667.826 485.437 672.747 469.838 683.04C459.232 690.709 478.592 704.164 483.254 705.254C508.832 702.297 525.098 677.722 550.784 672.844C569.768 664.163 594.099 658.771 601.51 636.268C605.193 625.399 622.402 612.731 599.599 617.087C584.789 617.305 570.634 623.222 555.767 622.69V622.69Z" fill="#F3EBAD"/>
<path d="M2119.68 373.977L2093.9 390.383C2087.65 381.398 2078.27 373.391 2065.77 366.359C2053.27 359.328 2039.99 355.812 2025.93 355.812C2009.52 355.812 1994.29 359.914 1980.23 368.117C1966.55 375.93 1954.45 387.258 1943.9 402.102C1933.74 416.945 1925.73 434.719 1919.88 455.422C1914.02 476.125 1911.09 498.977 1911.09 523.977C1911.48 545.852 1915.38 565.578 1922.8 583.156C1930.62 600.734 1940.58 615.773 1952.69 628.273C1964.8 640.383 1978.27 649.758 1993.12 656.398C2007.96 663.039 2022.8 666.359 2037.65 666.359C2057.18 666.359 2074.76 662.062 2090.38 653.469C2106.01 644.484 2120.07 630.227 2132.57 610.695L2156.01 644.68C2138.43 665.773 2119.48 681.203 2099.17 690.969C2078.86 700.734 2057.38 705.617 2034.72 705.617C2014.02 705.617 1993.9 700.93 1974.37 691.555C1954.84 682.18 1937.45 669.094 1922.22 652.297C1906.98 635.109 1894.68 614.602 1885.3 590.773C1876.32 566.555 1871.83 539.797 1871.83 510.5C1871.83 488.234 1874.76 465.773 1880.62 443.117C1886.48 420.461 1895.46 399.953 1907.57 381.594C1920.07 363.234 1935.89 348.391 1955.03 337.062C1974.56 325.344 1997.8 319.484 2024.76 319.484C2045.07 319.484 2064.02 323.586 2081.59 331.789C2099.17 339.992 2111.87 354.055 2119.68 373.977ZM2474.99 501.711C2471.48 482.18 2466.79 463.82 2460.93 446.633C2455.07 429.445 2447.84 414.602 2439.25 402.102C2431.05 389.211 2421.48 379.055 2410.54 371.633C2399.6 364.211 2387.3 360.5 2373.62 360.5C2358.39 360.5 2345.3 364.211 2334.37 371.633C2323.43 378.664 2314.25 388.039 2306.83 399.758C2299.8 411.477 2294.52 424.758 2291.01 439.602C2287.49 454.445 2285.73 469.68 2285.73 485.305C2285.73 503.664 2287.69 523.391 2291.59 544.484C2295.5 565.578 2301.55 585.109 2309.76 603.078C2317.96 620.656 2328.31 635.305 2340.81 647.023C2353.7 658.742 2368.74 664.602 2385.93 664.602C2402.73 664.602 2416.98 660.891 2428.7 653.469C2440.42 645.656 2449.8 635.695 2456.83 623.586C2464.25 611.086 2469.52 597.219 2472.65 581.984C2475.77 566.75 2477.34 551.711 2477.34 536.867C2477.34 531.008 2477.14 525.148 2476.75 519.289C2476.36 513.039 2475.77 507.18 2474.99 501.711ZM2513.66 497.023C2514.45 503.273 2515.03 509.523 2515.42 515.773C2515.81 521.633 2516.01 527.688 2516.01 533.938C2516.01 554.641 2513.47 575.344 2508.39 596.047C2503.31 616.359 2495.7 634.719 2485.54 651.125C2475.38 667.531 2462.49 680.812 2446.87 690.969C2431.24 701.125 2412.88 706.203 2391.79 706.203C2372.65 706.203 2354.29 701.32 2336.71 691.555C2319.13 681.398 2303.51 667.141 2289.84 648.781C2276.55 630.031 2265.81 607.57 2257.61 581.398C2249.8 555.227 2245.89 525.734 2245.89 492.922C2245.89 471.438 2248.43 450.539 2253.51 430.227C2258.59 409.914 2266.4 391.75 2276.95 375.734C2287.49 359.719 2300.77 346.828 2316.79 337.062C2332.8 327.297 2351.75 322.414 2373.62 322.414C2395.89 322.414 2415.23 328.078 2431.63 339.406C2448.04 350.344 2461.91 364.406 2473.23 381.594C2484.56 398.781 2493.55 417.727 2500.19 438.43C2506.83 458.742 2511.32 478.273 2513.66 497.023ZM2659.21 395.07V698.586H2613.51V329.445L2669.76 321.242L2759.99 555.617L2865.46 328.273L2909.99 331.789L2938.12 707.961H2898.27L2877.18 399.758L2770.54 617.727L2744.76 614.211L2659.21 395.07ZM3292.26 657.57V698.586H3069.6L3048.51 670.461V361.086L3071.95 327.102H3260.62V361.086H3089.52V492.336H3272.34V523.977H3087.18V657.57H3292.26ZM3421.4 711.477L3402.65 688.039C3400.3 629.445 3398.55 572.219 3397.38 516.359C3396.59 460.5 3395.23 403.273 3393.27 344.68L3410.85 323.586C3417.88 322.805 3424.72 322.219 3431.36 321.828C3438.39 321.438 3445.23 321.242 3451.87 321.242C3479.21 321.242 3504.21 324.758 3526.87 331.789C3549.91 338.82 3569.64 349.953 3586.05 365.188C3602.45 380.422 3615.15 399.953 3624.13 423.781C3633.51 447.609 3638.2 476.125 3638.2 509.328C3638.2 539.016 3632.73 566.359 3621.79 591.359C3611.24 615.969 3596.59 637.258 3577.84 655.227C3559.09 672.805 3537.02 686.672 3511.63 696.828C3486.63 706.594 3459.68 711.477 3430.77 711.477H3421.4ZM3429.6 359.914L3441.32 672.805C3463.98 670.461 3485.07 664.992 3504.6 656.398C3524.13 647.414 3540.93 635.891 3554.99 621.828C3569.45 607.766 3580.58 591.359 3588.39 572.609C3596.59 553.469 3600.7 532.766 3600.7 510.5C3600.7 486.672 3597.77 465.383 3591.91 446.633C3586.44 427.883 3577.45 412.062 3564.95 399.172C3552.84 386.281 3537.02 376.516 3517.49 369.875C3497.96 362.844 3474.52 359.328 3447.18 359.328C3444.45 359.328 3441.52 359.523 3438.39 359.914C3435.66 359.914 3432.73 359.914 3429.6 359.914ZM3862.26 737.258L3811.87 733.742V532.18L3721.63 321.242L3756.79 301.32L3844.68 488.82L3948.98 321.242L3980.62 338.82L3862.26 533.352V737.258ZM4564.68 527.492C4563.51 540.773 4562.14 555.422 4560.58 571.438C4559.41 587.062 4558.23 603.273 4557.06 620.07L4549.45 719.68L4513.12 716.164L4521.32 606.008C4518.59 609.914 4514.09 614.797 4507.84 620.656C4501.98 626.516 4494.56 632.18 4485.58 637.648C4476.59 642.727 4466.24 647.219 4454.52 651.125C4442.8 655.031 4430.11 656.984 4416.44 656.984C4397.69 656.984 4380.11 653.273 4363.7 645.852C4347.69 638.43 4333.82 628.078 4322.1 614.797C4310.38 601.516 4301.01 585.695 4293.98 567.336C4287.34 548.586 4284.02 528.078 4284.02 505.812C4284.02 476.125 4287.73 448.586 4295.15 423.195C4302.96 397.414 4313.51 375.148 4326.79 356.398C4340.46 337.258 4356.67 322.414 4375.42 311.867C4394.17 300.93 4414.68 295.461 4436.95 295.461C4450.23 295.461 4462.53 297.219 4473.86 300.734C4485.58 303.859 4495.93 308.156 4504.91 313.625C4513.9 318.703 4521.52 324.758 4527.77 331.789C4534.02 338.82 4538.51 345.852 4541.24 352.883L4509.6 369.289C4501.79 356.789 4491.83 347.609 4479.72 341.75C4467.61 335.891 4454.91 332.961 4441.63 332.961C4425.23 332.961 4409.8 337.062 4395.34 345.266C4381.28 353.078 4368.98 364.406 4358.43 379.25C4348.27 393.703 4340.07 411.281 4333.82 431.984C4327.96 452.297 4325.03 474.758 4325.03 499.367C4325.03 514.602 4326.98 529.445 4330.89 543.898C4335.19 557.961 4341.24 570.461 4349.05 581.398C4357.26 591.945 4367.41 600.539 4379.52 607.18C4391.63 613.43 4405.89 616.555 4422.3 616.555C4434.8 616.555 4446.71 614.016 4458.04 608.938C4469.76 603.859 4480.11 597.219 4489.09 589.016C4498.08 580.812 4505.3 571.438 4510.77 560.891C4516.63 549.953 4520.15 538.82 4521.32 527.492H4420.54V489.992H4627.96V527.492H4564.68ZM4952.8 501.711C4949.29 482.18 4944.6 463.82 4938.74 446.633C4932.88 429.445 4925.66 414.602 4917.06 402.102C4908.86 389.211 4899.29 379.055 4888.35 371.633C4877.41 364.211 4865.11 360.5 4851.44 360.5C4836.2 360.5 4823.12 364.211 4812.18 371.633C4801.24 378.664 4792.06 388.039 4784.64 399.758C4777.61 411.477 4772.34 424.758 4768.82 439.602C4765.3 454.445 4763.55 469.68 4763.55 485.305C4763.55 503.664 4765.5 523.391 4769.41 544.484C4773.31 565.578 4779.37 585.109 4787.57 603.078C4795.77 620.656 4806.12 635.305 4818.62 647.023C4831.52 658.742 4846.55 664.602 4863.74 664.602C4880.54 664.602 4894.8 660.891 4906.52 653.469C4918.23 645.656 4927.61 635.695 4934.64 623.586C4942.06 611.086 4947.34 597.219 4950.46 581.984C4953.59 566.75 4955.15 551.711 4955.15 536.867C4955.15 531.008 4954.95 525.148 4954.56 519.289C4954.17 513.039 4953.59 507.18 4952.8 501.711ZM4991.48 497.023C4992.26 503.273 4992.84 509.523 4993.23 515.773C4993.62 521.633 4993.82 527.688 4993.82 533.938C4993.82 554.641 4991.28 575.344 4986.2 596.047C4981.12 616.359 4973.51 634.719 4963.35 651.125C4953.2 667.531 4940.3 680.812 4924.68 690.969C4909.05 701.125 4890.7 706.203 4869.6 706.203C4850.46 706.203 4832.1 701.32 4814.52 691.555C4796.95 681.398 4781.32 667.141 4767.65 648.781C4754.37 630.031 4743.62 607.57 4735.42 581.398C4727.61 555.227 4723.7 525.734 4723.7 492.922C4723.7 471.438 4726.24 450.539 4731.32 430.227C4736.4 409.914 4744.21 391.75 4754.76 375.734C4765.3 359.719 4778.59 346.828 4794.6 337.062C4810.62 327.297 4829.56 322.414 4851.44 322.414C4873.7 322.414 4893.04 328.078 4909.45 339.406C4925.85 350.344 4939.72 364.406 4951.05 381.594C4962.38 398.781 4971.36 417.727 4978 438.43C4984.64 458.742 4989.13 478.273 4991.48 497.023ZM5106.55 668.117V322.414H5147.57V654.055H5358.51V696.242H5129.99L5106.55 668.117ZM5482.96 711.477L5464.21 688.039C5461.87 629.445 5460.11 572.219 5458.94 516.359C5458.16 460.5 5456.79 403.273 5454.84 344.68L5472.41 323.586C5479.45 322.805 5486.28 322.219 5492.92 321.828C5499.95 321.438 5506.79 321.242 5513.43 321.242C5540.77 321.242 5565.77 324.758 5588.43 331.789C5611.48 338.82 5631.2 349.953 5647.61 365.188C5664.02 380.422 5676.71 399.953 5685.7 423.781C5695.07 447.609 5699.76 476.125 5699.76 509.328C5699.76 539.016 5694.29 566.359 5683.35 591.359C5672.8 615.969 5658.16 637.258 5639.41 655.227C5620.66 672.805 5598.59 686.672 5573.2 696.828C5548.2 706.594 5521.24 711.477 5492.34 711.477H5482.96ZM5491.16 359.914L5502.88 672.805C5525.54 670.461 5546.63 664.992 5566.16 656.398C5585.7 647.414 5602.49 635.891 5616.55 621.828C5631.01 607.766 5642.14 591.359 5649.95 572.609C5658.16 553.469 5662.26 532.766 5662.26 510.5C5662.26 486.672 5659.33 465.383 5653.47 446.633C5648 427.883 5639.02 412.062 5626.52 399.172C5614.41 386.281 5598.59 376.516 5579.05 369.875C5559.52 362.844 5536.09 359.328 5508.74 359.328C5506.01 359.328 5503.08 359.523 5499.95 359.914C5497.22 359.914 5494.29 359.914 5491.16 359.914Z" fill="white"/>
</svg>
